<svg xmlns="http://www.w3.org/2000/svg" xmlns:xlink="http://www.w3.org/1999/xlink" xmlns:inkscape="http://www.inkscape.org/namespaces/inkscape" version="1.1" width="651.261" height="291.157" viewBox="0 0 651.261 291.157">
<defs>
<clipPath id="clip_1">
<path transform="matrix(1,0,0,-1,0,291.157)" d="M0 291.157H651.261V0H0Z"/>
</clipPath>
<clipPath id="clip_2">
<path transform="matrix(1,0,0,-1,0,291.157)" d="M0 0H651.261V291.157H0Z"/>
</clipPath>
</defs>
<g>
<g inkscape:groupmode="layer" inkscape:label="Capa 2">
<g clip-path="url(#clip_1)">
<g>
<g clip-path="url(#clip_2)">
<path transform="matrix(1,0,0,-1,270.9789,45.43811)" d="M0 0C-2.103 .513-1.41-.672-2.077-1.517-24.027-29.329-45.98-67.528-63.77-98.524-77.487-122.422-91.096-153.79-106.798-175.511-114.745-186.505-124.991-191.054-134.493-178.384-146.988-161.723-130.529-117.276-128.626-97.3L-110.748-22.549C-123.746-41.029-135.632-60.539-146.21-80.522-167.674-121.07-195.425-205.237-242.223-220.512-254.682-224.579-273.859-222.292-270.615-205.004-269.53-199.221-263.274-202.142-259.797-202.198-241.265-202.496-225.974-183.915-216.015-170.2-195.823-142.39-182.546-109.125-166.347-78.911-154.052-55.979-116.209 8.369-93.462 18.16-71.784 27.49-80.238-3.95-82.55-14.501-91.886-57.108-102.548-98.367-110.097-141.604-110.447-143.606-111.217-146.282-110.756-148.195-88.445-116.897-72.064-81.841-51.884-49.194-36.295-23.974-12.337 13.43 8.849 33.446 14.132 38.438 32.169 53.791 35.867 39.499 38.625 28.842 30.22 8.643 26.596-2.021 9.784-51.498-8.338-97.673-20.55-148.993-25.693-170.606-41.507-223.78-8.25-229.344-3.678-230.109 4.251-227.796 2.225-235.394 .177-243.073-14.461-246.236-21.341-245.651-77.505-240.877-49.293-148.394-39.869-115.982-28.453-76.723-13.687-38.468 0 0" fill="#030505"/>
<path transform="matrix(1,0,0,-1,339.0415,152.9683)" d="M0 0C-11.393-.025-31.581-23.712-37.471-33-42.654-41.173-50.513-54.826-49.214-65.517-48.67-69.997-43.942-72.762-39.748-71.096-39.724-71.087-39.7-71.077-39.677-71.068-28.32-66.523-1.595-34.147 3.775-22.696 6.987-15.845 12.389 .027 0 0M217.888-19.726C229.317-6.406 250.179 17.224 269.628 14.697 278.392 13.558 286.119 6.244 284.539-3.026 281.626-20.111 257.067-30.133 242.985-35.963 244.763-54.814 258.059-81.016 280.161-65.495 291.35-57.638 294.462-47.567 302.102-38.301 307.656-31.565 313.596-36.071 311.936-44.114 309.698-54.955 288.056-75.163 278.306-80.555 255.023-93.431 238.486-81.829 227.958-59.991 226.075-56.085 219.937-39.711 220.293-36.252 220.791-31.405 237.253-24.567 241.485-21.986 251.802-15.694 261.095-6.671 266.209 4.43 262.608 7.075 247.129-4.928 244.037-7.623 220.97-27.727 204.52-52.998 197.925-83.137 193.668-88.873 185.876-86.949 182.795-80.99 179.765-75.128 181.198-70.17 181.626-64.027 172.274-73.398 147.299-96.086 134.918-80.538 123.663-66.403 143.777-27.789 143.777-27.789 143.777-27.789 135.563-33.13 134.145-33.856 130.491-35.728 123.957-38.061 119.925-38.167 117.36-38.234 114.582-38.149 111.546-37.843 103.63-53.44 92.299-68.188 77.982-78.377 71.024-83.329 63.554-87.814 54.726-85.016 46.393-82.376 41.803-68.556 43.898-60.813 42.013-60.244 42.504-61.38 42.056-61.836 34.313-69.71 28.218-79.094 17.621-84.065 .402-92.142-13.445-79.164-9.263-61.619-9.735-61.135-13.931-65.059-14.513-65.599-20.101-70.79-24.504-76.197-31.084-80.466-58.575-98.301-77.751-82.335-69.262-51.148-62.421-26.013-27.046 18.581 1.602 15.705 9.323 14.93 16.312 9.958 19.323 2.818 20.409 .242 21.181-7.028 21.479-7.513 22.811-9.686 30.389-8.205 29.058-18.142 27.385-30.627 5.488-57.922 9.397-69.131 10.534-72.392 14.937-70.775 17.056-69.801 21.625-67.7 41.664-46.517 43.935-41.913 46.976-35.746 48.468-20.658 50.933-12.665 53.148-5.481 57.873 8.708 64.09 12.84 69.2 16.237 78.929 16.027 80.095 8.825 81.394 .806 71.976-17.24 69.273-26.173 66.434-35.559 61.856-53.369 63.284-62.764 64.899-73.39 78.942-60.337 82.17-56.79 93.558-44.276 107.477-18.45 109.129-1.591 109.791 5.168 108.087 14.575 112.017 20.491 116.879 27.811 127.911 27.304 129.208 17.657 131.123 3.413 123.754-12.396 118.811-25.36 126.459-26.033 134.457-20.416 140.128-15.675 150.05-7.383 158.265 4.222 167.645 13.187 178.321 17.337 182.571 9.997 179.037 .189 172.215-18.743 154.559-40.385 151.388-61.569 149.475-74.349 162.883-64.61 167.514-60.782 172.371-56.767 190.532-36.811 193.233-31.728 198.997-20.882 204.173-2.591 209.684 9.815 215.791 23.56 239.164 74.03 249.826 80.828 260.422 87.585 266.594 78.974 264.048 68.217 261.435 57.179 243.909 30.723 237.597 18.953 230.766 6.216 224.149-6.701 217.888-19.726" fill="#030505"/>
<path transform="matrix(1,0,0,-1,525.2874,97.97432)" d="M0 0C22.712 4.726 11.029-31.252-5.076-24.84-16.355-20.349-8.575-1.784 0 0" fill="#030505"/>
</g>
</g>
</g>
</g>
</g>
</svg>
